<!DOCTYPE svg PUBLIC "-//W3C//DTD SVG 20010904//EN" "http://www.w3.org/TR/2001/REC-SVG-20010904/DTD/svg10.dtd">
<svg version="1.0" xmlns="http://www.w3.org/2000/svg" width="367px" height="432px" viewBox="0 0 3670 4320" preserveAspectRatio="xMidYMid meet">
<g id="layer101" fill="#000000" stroke="none">
</g>
<g id="layer102" fill="#0b1429" stroke="none">
<path d="M1210 4060 l0 -60 340 0 340 0 0 -234 0 -234 -37 -6 c-21 -3 -67 -8 -103 -11 -142 -13 -344 -66 -503 -131 -540 -221 -946 -681 -1106 -1254 -79 -285 -83 -653 -10 -949 58 -238 167 -473 304 -656 48 -64 160 -198 184 -219 25 -23 8 -34 182 127 167 156 146 148 226 84 190 -152 401 -252 643 -304 120 -26 449 -26 568 0 234 50 415 133 609 280 526 394 716 1104 463 1724 -36 87 -118 236 -162 293 l-20 25 159 152 158 153 -115 111 c-275 265 -529 415 -855 508 -118 33 -355 71 -446 71 -5 0 -9 104 -9 235 l0 235 340 0 340 0 0 60 0 60 -745 0 -745 0 0 -60z"/>
</g>
<g id="layer103" fill="#0a3185" stroke="none">
<path d="M1948 4113 l742 -3 0 -50 0 -50 -340 0 -340 0 0 -244 0 -244 73 -7 c41 -4 82 -5 93 -2 10 2 1 5 -22 6 -23 0 -62 4 -88 7 l-46 7 0 233 0 234 340 0 340 0 0 60 0 60 -747 -2 -748 -3 743 -2z"/>
<path d="M1548 4003 l342 -3 0 -235 0 -234 -42 -5 c-24 -3 -56 -7 -73 -9 -20 -3 -14 -5 16 -6 26 0 61 2 78 5 l31 7 0 243 0 244 -347 -2 -348 -3 343 -2z"/>
<path d="M1640 3499 c-16 -5 -4 -6 35 -2 33 3 62 7 64 9 8 8 -74 2 -99 -7z"/>
<path d="M2235 3499 c22 -4 51 -8 65 -7 23 0 22 1 -5 8 -16 4 -46 8 -65 8 l-35 0 40 -9z"/>
<path d="M1530 3478 c-25 -6 -40 -12 -35 -14 6 -2 35 3 65 10 64 16 37 19 -30 4z"/>
<path d="M2350 3481 c37 -12 109 -22 85 -12 -11 5 -40 11 -65 15 -30 4 -36 3 -20 -3z"/>
<path d="M1458 3453 c7 -3 16 -2 19 1 4 3 -2 6 -13 5 -11 0 -14 -3 -6 -6z"/>
<path d="M1357 3428 c-32 -11 -57 -22 -54 -24 2 -2 35 7 73 20 38 14 62 24 54 24 -8 0 -41 -9 -73 -20z"/>
<path d="M2510 3441 c8 -4 29 -11 45 -15 19 -4 25 -3 15 3 -8 4 -28 11 -45 15 -19 4 -25 3 -15 -3z"/>
<path d="M2625 3401 c22 -11 47 -20 55 -20 17 0 -34 23 -71 33 -13 3 -6 -3 16 -13z"/>
<path d="M1730 3399 c-25 -5 -74 -14 -110 -20 -341 -57 -746 -290 -988 -569 -424 -489 -552 -1142 -346 -1760 58 -174 202 -427 312 -550 l49 -54 118 107 119 108 35 -35 c42 -43 54 -26 -143 -204 l-138 -126 -41 45 c-22 24 -65 74 -95 112 -30 37 -57 67 -59 67 -6 0 2 -11 88 -115 36 -44 76 -89 88 -99 25 -23 8 -34 182 127 167 156 146 148 226 84 190 -152 401 -252 643 -304 120 -26 449 -26 568 0 234 50 415 133 609 280 526 394 716 1104 463 1724 -36 87 -118 236 -162 293 l-20 25 159 152 158 153 -115 111 c-181 174 -328 282 -501 369 -82 42 -138 66 -128 56 3 -3 50 -28 105 -54 54 -27 126 -66 159 -87 86 -55 243 -177 290 -224 l39 -41 -36 -37 -37 -37 -68 65 c-233 218 -553 370 -900 429 -127 21 -433 27 -523 9z m-726 -1580 c33 -26 35 -73 4 -106 -15 -16 -19 -26 -12 -31 17 -10 26 -49 19 -73 -10 -29 -64 -49 -135 -49 l-60 0 0 140 0 140 79 0 c64 0 83 -4 105 -21z m296 -4 c0 -24 -3 -25 -55 -25 -54 0 -55 0 -55 -30 0 -29 2 -30 45 -30 43 0 45 -1 45 -30 0 -29 -2 -30 -45 -30 -43 0 -45 -1 -45 -30 0 -30 1 -30 55 -30 52 0 55 -1 55 -25 0 -25 -1 -25 -85 -25 l-85 0 0 140 0 140 85 0 c84 0 85 0 85 -25z m170 -25 c0 -43 3 -50 19 -50 13 0 29 17 47 50 23 42 32 50 56 50 34 0 35 -6 4 -61 l-25 -43 25 -29 c42 -49 28 -108 -31 -133 -19 -8 -62 -14 -95 -14 l-60 0 0 140 0 140 30 0 c29 0 30 -1 30 -50z m310 17 c0 -31 23 -77 38 -77 4 0 21 25 37 55 27 50 33 55 63 55 l34 0 -32 -52 c-69 -116 -68 -110 -26 -166 20 -27 36 -52 36 -56 0 -3 -13 -6 -28 -6 -23 0 -36 10 -67 55 -20 30 -41 55 -46 55 -5 0 -9 -25 -9 -55 0 -54 0 -55 -30 -55 l-30 0 0 140 0 140 30 0 c27 0 30 -3 30 -33z m430 8 c0 -22 -4 -24 -57 -27 -55 -3 -58 -4 -61 -30 -3 -27 -2 -28 47 -28 50 0 51 -1 51 -30 0 -29 -1 -30 -51 -30 -49 0 -50 -1 -47 -27 3 -27 6 -28 61 -31 53 -3 57 -5 57 -27 0 -25 -1 -25 -85 -25 l-85 0 0 140 0 140 85 0 c84 0 85 0 85 -25z m280 0 c0 -24 -3 -25 -55 -25 l-55 0 0 -115 0 -115 -30 0 -30 0 0 140 0 140 85 0 c84 0 85 0 85 -25z m280 0 c0 -24 -3 -25 -60 -25 -60 0 -60 0 -60 -29 0 -28 2 -30 48 -33 43 -3 47 -5 47 -28 0 -23 -4 -25 -47 -28 -46 -3 -48 -5 -48 -33 0 -29 1 -29 55 -29 52 0 55 -1 55 -25 0 -25 -1 -25 -85 -25 l-85 0 0 140 0 140 90 0 c89 0 90 0 90 -25z m210 -29 c0 -43 8 -72 40 -138 39 -80 40 -83 20 -86 -35 -6 -44 3 -64 59 -10 30 -22 58 -26 62 -4 5 -18 -21 -31 -57 -23 -63 -25 -66 -56 -66 l-32 0 45 96 c31 68 44 108 44 140 0 42 1 44 30 44 30 0 30 -1 30 -54z"/>
<path d="M880 1760 c0 -39 1 -40 34 -40 32 0 66 20 66 40 0 20 -34 40 -66 40 -33 0 -34 -1 -34 -40z"/>
<path d="M887 1673 c-4 -3 -7 -19 -7 -35 0 -28 2 -29 37 -26 28 2 39 8 42 22 5 31 -51 61 -72 39z"/>
<path d="M1483 1693 c-8 -3 -13 -22 -13 -44 0 -37 1 -39 33 -39 70 0 80 65 12 83 -11 3 -26 3 -32 0z"/>
<path d="M1260 3390 c-8 -5 -10 -10 -5 -10 6 0 17 5 25 10 8 5 11 10 5 10 -5 0 -17 -5 -25 -10z"/>
<path d="M1161 3349 c-35 -16 -62 -32 -59 -34 2 -3 36 10 74 29 84 42 73 46 -15 5z"/>
<path d="M998 3259 c-241 -144 -432 -324 -600 -569 -62 -90 -167 -286 -182 -340 -4 -14 15 21 42 76 71 145 123 232 207 342 154 203 360 386 568 502 49 28 66 40 54 40 -2 0 -42 -23 -89 -51z"/>
<path d="M170 2225 c-17 -54 -29 -99 -27 -102 2 -2 18 40 35 94 17 53 29 99 27 101 -2 2 -17 -40 -35 -93z"/>
<path d="M126 2074 c-4 -20 -5 -38 -3 -40 3 -3 8 11 11 32 4 20 5 38 3 40 -3 3 -8 -11 -11 -32z"/>
<path d="M105 1975 c-3 -26 -4 -49 -2 -51 3 -3 8 16 12 41 3 26 4 49 2 51 -3 3 -8 -16 -12 -41z"/>
<path d="M86 1854 c-3 -26 -5 -81 -5 -123 2 -66 3 -60 10 44 8 127 6 156 -5 79z"/>
<path d="M81 1529 c0 -46 4 -102 8 -124 5 -24 6 8 3 80 -6 140 -12 166 -11 44z"/>
<path d="M102 1325 c0 -16 4 -41 8 -55 l8 -25 0 25 c0 14 -4 39 -8 55 l-8 30 0 -30z"/>
<path d="M122 1225 c0 -11 4 -31 8 -45 6 -20 8 -21 8 -5 0 11 -4 31 -8 45 -6 20 -8 21 -8 5z"/>
<path d="M150 1104 c0 -10 5 -26 10 -34 8 -11 9 -7 4 15 -8 37 -14 45 -14 19z"/>
<path d="M171 1045 c-3 -57 213 -482 259 -510 6 -4 -14 31 -44 77 -66 102 -127 222 -177 348 -21 52 -38 90 -38 85z"/>
</g>
<g id="layer104" fill="#e7c03f" stroke="none">
<path d="M1750 3399 c-223 -34 -405 -90 -571 -173 -200 -102 -328 -196 -489 -362 -257 -265 -423 -599 -481 -969 -17 -103 -17 -417 0 -520 17 -109 65 -289 102 -383 67 -169 193 -382 297 -501 l38 -44 117 108 118 107 -44 51 c-145 171 -260 406 -313 640 -25 110 -31 410 -10 530 53 313 191 581 409 798 441 438 1094 552 1656 288 111 -52 260 -152 345 -231 l68 -63 -71 -63 -71 -64 -57 52 c-151 138 -360 244 -578 292 -131 30 -387 32 -510 4 -489 -107 -855 -455 -980 -931 -36 -135 -46 -393 -21 -530 50 -272 173 -503 370 -693 212 -205 463 -320 768 -353 308 -32 652 70 895 267 l41 34 62 -70 c62 -70 62 -71 44 -92 -46 -54 71 50 144 127 390 412 501 1025 282 1562 -36 87 -118 236 -162 293 l-20 25 159 152 158 151 -70 71 -69 71 -42 -41 -42 -42 -71 64 c-260 232 -588 384 -942 434 -112 16 -369 18 -459 4z m-753 -1570 c44 -27 49 -110 8 -125 -13 -5 -13 -8 0 -27 21 -30 19 -71 -6 -93 -16 -14 -40 -20 -100 -23 l-79 -3 0 147 0 148 78 -5 c42 -2 87 -11 99 -19z m311 -11 c3 -28 3 -28 -57 -28 -61 0 -61 0 -61 -29 0 -28 2 -30 48 -33 43 -3 47 -5 47 -28 0 -23 -4 -25 -47 -28 -43 -3 -48 -5 -48 -28 0 -23 3 -24 55 -24 54 0 55 0 55 -30 l0 -30 -85 0 -85 0 0 145 0 146 88 -3 c87 -3 87 -3 90 -30z m164 -20 c4 -72 25 -74 64 -6 29 52 50 66 81 54 12 -5 10 -15 -15 -59 l-30 -53 24 -23 c17 -16 24 -34 24 -60 -1 -67 -40 -91 -146 -91 l-64 0 0 138 c0 76 3 142 7 145 3 4 17 7 29 7 21 0 23 -5 26 -52z m318 2 c6 -49 17 -73 30 -65 4 3 22 30 39 60 27 47 35 55 61 55 17 0 30 -4 30 -10 0 -5 -21 -44 -47 -86 -32 -53 -43 -81 -37 -90 5 -7 24 -34 42 -59 l33 -45 -35 0 c-31 0 -39 6 -75 57 l-40 56 -3 -54 c-3 -53 -4 -54 -35 -57 l-33 -3 0 139 c0 76 3 142 7 146 4 4 19 6 33 4 22 -3 26 -9 30 -48z m425 20 c0 -23 -4 -25 -57 -28 -57 -3 -58 -4 -58 -32 0 -29 2 -30 45 -30 43 0 45 -1 45 -30 0 -29 -2 -30 -45 -30 -41 0 -45 -2 -45 -24 0 -23 4 -25 53 -28 48 -3 52 -5 55 -30 l3 -28 -90 0 -91 0 0 138 c0 76 3 142 7 146 4 4 46 5 93 4 83 -3 85 -4 85 -28z m275 0 c0 -30 -1 -30 -55 -30 l-55 0 0 -115 0 -115 -30 0 -30 0 0 145 0 145 85 0 85 0 0 -30z m278 -2 c3 -28 3 -28 -57 -28 l-61 0 0 -30 c0 -29 1 -30 50 -30 49 0 50 -1 50 -30 0 -29 -1 -30 -50 -30 -46 0 -50 -2 -50 -25 0 -22 4 -24 58 -27 54 -3 57 -4 60 -30 l3 -28 -90 0 -91 0 0 138 c0 76 3 142 7 146 4 4 43 5 88 4 79 -3 80 -3 83 -30z m213 -33 c3 -39 18 -88 42 -139 20 -43 37 -80 37 -83 0 -2 -14 -3 -32 -1 -28 3 -34 9 -53 55 -11 28 -23 55 -26 58 -4 3 -16 -21 -29 -55 -21 -57 -24 -60 -56 -60 -19 0 -34 2 -34 4 0 3 18 42 40 87 27 57 40 96 40 125 0 61 8 76 39 72 24 -3 26 -7 32 -63z"/>
</g>
<g id="layer105" fill="#b0b4b8" stroke="none">
<path d="M1583 4113 c208 -2 546 -2 750 0 205 1 35 2 -378 2 -412 0 -580 -1 -372 -2z"/>
<path d="M2355 4010 l-340 -5 -3 -242 -2 -243 37 2 c37 1 37 1 6 5 l-33 4 0 235 0 234 340 0 c220 0 340 4 340 10 0 6 -1 9 -2 8 -2 -2 -156 -5 -343 -8z"/>
<path d="M1550 4003 l340 -3 0 -234 0 -235 -22 -4 c-20 -4 -19 -4 5 -6 l27 -1 -2 243 -3 242 -343 0 -342 0 340 -2z"/>
<path d="M1763 3513 c9 -2 23 -2 30 0 6 3 -1 5 -18 5 -16 0 -22 -2 -12 -5z"/>
<path d="M2143 3513 c9 -2 25 -2 35 0 9 3 1 5 -18 5 -19 0 -27 -2 -17 -5z"/>
<path d="M1673 3503 c9 -2 25 -2 35 0 9 3 1 5 -18 5 -19 0 -27 -2 -17 -5z"/>
<path d="M2223 3503 c9 -2 25 -2 35 0 9 3 1 5 -18 5 -19 0 -27 -2 -17 -5z"/>
<path d="M1628 3493 c7 -3 16 -2 19 1 4 3 -2 6 -13 5 -11 0 -14 -3 -6 -6z"/>
<path d="M2288 3493 c6 -2 18 -2 25 0 6 3 1 5 -13 5 -14 0 -19 -2 -12 -5z"/>
<path d="M1578 3483 c7 -3 16 -2 19 1 4 3 -2 6 -13 5 -11 0 -14 -3 -6 -6z"/>
<path d="M2348 3483 c7 -3 16 -2 19 1 4 3 -2 6 -13 5 -11 0 -14 -3 -6 -6z"/>
<path d="M1528 3473 c7 -3 16 -2 19 1 4 3 -2 6 -13 5 -11 0 -14 -3 -6 -6z"/>
<path d="M2388 3473 c6 -2 18 -2 25 0 6 3 1 5 -13 5 -14 0 -19 -2 -12 -5z"/>
<path d="M1493 3463 c4 -3 10 -3 14 0 3 4 0 7 -7 7 -7 0 -10 -3 -7 -7z"/>
<path d="M2433 3463 c4 -3 10 -3 14 0 3 4 0 7 -7 7 -7 0 -10 -3 -7 -7z"/>
<path d="M1453 3453 c4 -3 10 -3 14 0 3 4 0 7 -7 7 -7 0 -10 -3 -7 -7z"/>
<path d="M2468 3453 c7 -3 16 -2 19 1 4 3 -2 6 -13 5 -11 0 -14 -3 -6 -6z"/>
<path d="M1413 3443 c4 -3 10 -3 14 0 3 4 0 7 -7 7 -7 0 -10 -3 -7 -7z"/>
<path d="M2503 3443 c4 -3 10 -3 14 0 3 4 0 7 -7 7 -7 0 -10 -3 -7 -7z"/>
<path d="M1383 3433 c4 -3 10 -3 14 0 3 4 0 7 -7 7 -7 0 -10 -3 -7 -7z"/>
<path d="M2538 3433 c7 -3 16 -2 19 1 4 3 -2 6 -13 5 -11 0 -14 -3 -6 -6z"/>
<path d="M1353 3423 c4 -3 10 -3 14 0 3 4 0 7 -7 7 -7 0 -10 -3 -7 -7z"/>
<path d="M1323 3413 c4 -3 10 -3 14 0 3 4 0 7 -7 7 -7 0 -10 -3 -7 -7z"/>
<path d="M2593 3413 c4 -3 10 -3 14 0 3 4 0 7 -7 7 -7 0 -10 -3 -7 -7z"/>
<path d="M1750 3399 c-223 -34 -405 -90 -571 -173 -200 -102 -328 -196 -489 -362 -257 -265 -423 -599 -481 -969 -17 -103 -17 -417 0 -520 17 -109 65 -289 102 -383 67 -169 193 -382 297 -501 l38 -44 117 108 118 107 -44 51 c-145 171 -260 406 -313 640 -25 110 -31 410 -10 530 53 313 191 581 409 798 441 438 1094 552 1656 288 109 -51 258 -150 343 -229 l68 -62 116 109 116 108 -68 63 c-250 229 -590 386 -945 437 -112 16 -369 18 -459 4z"/>
<path d="M2623 3403 c4 -3 10 -3 14 0 3 4 0 7 -7 7 -7 0 -10 -3 -7 -7z"/>
<path d="M1273 3393 c4 -3 10 -3 14 0 3 4 0 7 -7 7 -7 0 -10 -3 -7 -7z"/>
<path d="M2673 3383 c4 -3 10 -3 14 0 3 4 0 7 -7 7 -7 0 -10 -3 -7 -7z"/>
<path d="M1210 3370 c-8 -5 -10 -10 -5 -10 6 0 17 5 25 10 8 5 11 10 5 10 -5 0 -17 -5 -25 -10z"/>
<path d="M2723 3363 c4 -3 10 -3 14 0 3 4 0 7 -7 7 -7 0 -10 -3 -7 -7z"/>
<path d="M1128 3334 c-39 -21 -35 -28 5 -8 37 19 44 24 31 24 -5 -1 -21 -8 -36 -16z"/>
<path d="M2850 3305 c0 -2 18 -14 40 -25 22 -11 40 -18 40 -15 0 2 -18 14 -40 25 -22 11 -40 18 -40 15z"/>
<path d="M1024 3274 c-18 -14 -18 -15 4 -4 12 6 22 13 22 15 0 8 -5 6 -26 -11z"/>
<path d="M2945 3250 c3 -5 8 -10 11 -10 3 0 2 5 -1 10 -3 6 -8 10 -11 10 -3 0 -2 -4 1 -10z"/>
<path d="M964 3238 c-4 -7 -3 -8 4 -4 7 4 12 9 12 12 0 8 -9 4 -16 -8z"/>
<path d="M2970 3236 c0 -3 9 -10 20 -16 11 -6 20 -8 20 -6 0 3 -9 10 -20 16 -11 6 -20 8 -20 6z"/>
<path d="M934 3218 c-4 -7 -3 -8 4 -4 12 7 16 16 8 16 -3 0 -8 -5 -12 -12z"/>
<path d="M904 3198 c-4 -7 -3 -8 4 -4 7 4 12 9 12 12 0 8 -9 4 -16 -8z"/>
<path d="M3020 3206 c0 -2 14 -14 30 -26 17 -12 30 -19 30 -16 0 2 -13 14 -30 26 -16 12 -30 19 -30 16z"/>
<path d="M874 3178 c-4 -7 -3 -8 4 -4 7 4 12 9 12 12 0 8 -9 4 -16 -8z"/>
<path d="M839 3153 c-13 -16 -12 -17 4 -4 9 7 17 15 17 17 0 8 -8 3 -21 -13z"/>
<path d="M3090 3156 c0 -2 8 -10 18 -17 15 -13 16 -12 3 4 -13 16 -21 21 -21 13z"/>
<path d="M794 3118 l-19 -23 23 19 c12 11 22 21 22 23 0 8 -8 2 -26 -19z"/>
<path d="M3140 3116 c0 -2 8 -10 18 -17 15 -13 16 -12 3 4 -13 16 -21 21 -21 13z"/>
<path d="M715 3053 c-43 -39 -44 -41 -9 -15 37 28 72 63 63 62 -2 -1 -26 -21 -54 -47z"/>
<path d="M3210 3055 c19 -19 36 -35 39 -35 3 0 -10 16 -29 35 -19 19 -36 35 -39 35 -3 0 10 -16 29 -35z"/>
<path d="M604 2948 c-54 -58 -112 -126 -78 -93 40 39 137 145 133 145 -3 0 -27 -24 -55 -52z"/>
<path d="M1810 2914 c-530 -70 -950 -437 -1085 -949 -36 -135 -46 -393 -21 -530 50 -272 173 -503 370 -693 212 -205 463 -320 768 -353 308 -32 652 70 894 267 23 18 44 31 48 29 3 -3 4 -2 1 2 -3 3 35 47 83 97 169 175 274 377 328 626 25 118 25 372 0 490 -20 92 -66 231 -98 295 -42 83 -112 195 -123 195 -6 0 -27 -16 -46 -36 -18 -20 -77 -76 -129 -124 l-96 -88 -64 70 -64 71 138 132 138 131 -58 53 c-149 137 -358 244 -569 291 -89 20 -335 34 -415 24z m-813 -1085 c44 -27 49 -110 8 -125 -13 -5 -13 -8 0 -27 21 -30 19 -71 -6 -93 -16 -14 -40 -20 -100 -23 l-79 -3 0 147 0 148 78 -5 c42 -2 87 -11 99 -19z m311 -11 c3 -28 3 -28 -57 -28 -61 0 -61 0 -61 -29 0 -28 2 -30 48 -33 43 -3 47 -5 47 -28 0 -23 -4 -25 -47 -28 -43 -3 -48 -5 -48 -28 0 -23 3 -24 55 -24 54 0 55 0 55 -30 l0 -30 -85 0 -85 0 0 145 0 146 88 -3 c87 -3 87 -3 90 -30z m164 -20 c4 -72 25 -74 64 -6 29 52 50 66 81 54 12 -5 10 -15 -15 -59 l-30 -53 24 -23 c17 -16 24 -34 24 -60 -1 -67 -40 -91 -146 -91 l-64 0 0 138 c0 76 3 142 7 145 3 4 17 7 29 7 21 0 23 -5 26 -52z m318 2 c6 -49 17 -73 30 -65 4 3 22 30 39 60 27 47 35 55 61 55 17 0 30 -4 30 -10 0 -5 -21 -44 -47 -86 -32 -53 -43 -81 -37 -90 5 -7 24 -34 42 -59 l33 -45 -35 0 c-31 0 -39 6 -75 57 l-40 56 -3 -54 c-3 -53 -4 -54 -35 -57 l-33 -3 0 139 c0 76 3 142 7 146 4 4 19 6 33 4 22 -3 26 -9 30 -48z m425 20 c0 -23 -4 -25 -57 -28 -57 -3 -58 -4 -58 -32 0 -29 2 -30 45 -30 43 0 45 -1 45 -30 0 -29 -2 -30 -45 -30 -41 0 -45 -2 -45 -24 0 -23 4 -25 53 -28 48 -3 52 -5 55 -30 l3 -28 -90 0 -91 0 0 138 c0 76 3 142 7 146 4 4 46 5 93 4 83 -3 85 -4 85 -28z m275 0 c0 -30 -1 -30 -55 -30 l-55 0 0 -115 0 -115 -30 0 -30 0 0 145 0 145 85 0 85 0 0 -30z m278 -2 c3 -28 3 -28 -57 -28 l-61 0 0 -30 c0 -29 1 -30 50 -30 49 0 50 -1 50 -30 0 -29 -1 -30 -50 -30 -46 0 -50 -2 -50 -25 0 -22 4 -24 58 -27 54 -3 57 -4 60 -30 l3 -28 -90 0 -91 0 0 138 c0 76 3 142 7 146 4 4 43 5 88 4 79 -3 80 -3 83 -30z m213 -33 c3 -39 18 -88 42 -139 20 -43 37 -80 37 -83 0 -2 -14 -3 -32 -1 -28 3 -34 9 -53 55 -11 28 -23 55 -26 58 -4 3 -16 -21 -29 -55 -21 -57 -24 -60 -56 -60 -19 0 -34 2 -34 4 0 3 18 42 40 87 27 57 40 96 40 125 0 61 8 76 39 72 24 -3 26 -7 32 -63z"/>
<path d="M884 1786 c-11 -29 1 -61 23 -64 52 -7 86 45 44 68 -28 14 -61 12 -67 -4z"/>
<path d="M890 1670 c-7 -4 -10 -18 -8 -31 2 -17 10 -25 29 -27 28 -3 54 20 46 42 -6 16 -50 26 -67 16z"/>
<path d="M1470 1655 c0 -41 18 -53 59 -39 52 19 34 74 -25 74 -32 0 -34 -2 -34 -35z"/>
<path d="M3395 2880 c21 -22 41 -40 44 -40 3 0 -13 18 -34 40 -21 22 -41 40 -44 40 -3 0 13 -18 34 -40z"/>
<path d="M474 2798 l-19 -23 23 19 c21 18 27 26 19 26 -2 0 -12 -10 -23 -22z"/>
<path d="M444 2758 c-4 -7 -3 -8 4 -4 7 4 12 9 12 12 0 8 -9 4 -16 -8z"/>
<path d="M3315 2718 l-50 -53 53 50 c48 46 57 55 49 55 -1 0 -25 -24 -52 -52z"/>
<path d="M414 2718 c-4 -7 -3 -8 4 -4 7 4 12 9 12 12 0 8 -9 4 -16 -8z"/>
<path d="M394 2688 c-4 -7 -3 -8 4 -4 7 4 12 9 12 12 0 8 -9 4 -16 -8z"/>
<path d="M374 2658 c-4 -7 -3 -8 4 -4 7 4 12 9 12 12 0 8 -9 4 -16 -8z"/>
<path d="M348 2618 c-22 -34 -52 -95 -41 -83 13 14 65 105 60 105 -3 0 -11 -10 -19 -22z"/>
<path d="M3149 2563 l-24 -28 28 24 c25 23 32 31 24 31 -2 0 -14 -12 -28 -27z"/>
<path d="M232 2395 c-17 -37 -14 -45 4 -12 9 16 14 31 11 33 -2 2 -9 -7 -15 -21z"/>
<path d="M210 2340 c0 -7 3 -10 7 -7 3 4 3 10 0 14 -4 3 -7 0 -7 -7z"/>
<path d="M190 2290 c0 -7 3 -10 7 -7 3 4 3 10 0 14 -4 3 -7 0 -7 -7z"/>
<path d="M180 2260 c0 -7 3 -10 7 -7 3 4 3 10 0 14 -4 3 -7 0 -7 -7z"/>
<path d="M170 2230 c0 -7 3 -10 7 -7 3 4 3 10 0 14 -4 3 -7 0 -7 -7z"/>
<path d="M160 2200 c0 -7 3 -10 7 -7 3 4 3 10 0 14 -4 3 -7 0 -7 -7z"/>
<path d="M150 2170 c0 -7 3 -10 7 -7 3 4 3 10 0 14 -4 3 -7 0 -7 -7z"/>
<path d="M140 2130 c0 -7 3 -10 7 -7 3 4 3 10 0 14 -4 3 -7 0 -7 -7z"/>
<path d="M131 2094 c0 -11 3 -14 6 -6 3 7 2 16 -1 19 -3 4 -6 -2 -5 -13z"/>
<path d="M3350 2090 c0 -7 3 -10 7 -7 3 4 3 10 0 14 -4 3 -7 0 -7 -7z"/>
<path d="M121 2054 c0 -11 3 -14 6 -6 3 7 2 16 -1 19 -3 4 -6 -2 -5 -13z"/>
<path d="M111 2004 c0 -11 3 -14 6 -6 3 7 2 16 -1 19 -3 4 -6 -2 -5 -13z"/>
<path d="M3380 1980 c0 -7 3 -10 7 -7 3 4 3 10 0 14 -4 3 -7 0 -7 -7z"/>
<path d="M102 1950 c0 -14 2 -19 5 -12 2 6 2 18 0 25 -3 6 -5 1 -5 -13z"/>
<path d="M3390 1930 c0 -7 3 -10 7 -7 3 4 3 10 0 14 -4 3 -7 0 -7 -7z"/>
<path d="M92 1880 c0 -14 2 -19 5 -12 2 6 2 18 0 25 -3 6 -5 1 -5 -13z"/>
<path d="M3400 1870 c0 -7 3 -10 7 -7 3 4 3 10 0 14 -4 3 -7 0 -7 -7z"/>
<path d="M83 1790 c0 -30 2 -43 4 -27 2 15 2 39 0 55 -2 15 -4 2 -4 -28z"/>
<path d="M3412 1795 c0 -16 2 -22 5 -12 2 9 2 23 0 30 -3 6 -5 -1 -5 -18z"/>
<path d="M3412 1515 c0 -16 2 -22 5 -12 2 9 2 23 0 30 -3 6 -5 -1 -5 -18z"/>
<path d="M83 1480 c0 -30 2 -43 4 -27 2 15 2 39 0 55 -2 15 -4 2 -4 -28z"/>
<path d="M3400 1440 c0 -7 3 -10 7 -7 3 4 3 10 0 14 -4 3 -7 0 -7 -7z"/>
<path d="M91 1384 c0 -11 3 -14 6 -6 3 7 2 16 -1 19 -3 4 -6 -2 -5 -13z"/>
<path d="M3390 1380 c0 -7 3 -10 7 -7 3 4 3 10 0 14 -4 3 -7 0 -7 -7z"/>
<path d="M102 1315 c0 -16 2 -22 5 -12 2 9 2 23 0 30 -3 6 -5 -1 -5 -18z"/>
<path d="M3380 1330 c0 -7 3 -10 7 -7 3 4 3 10 0 14 -4 3 -7 0 -7 -7z"/>
<path d="M3370 1290 c0 -7 3 -10 7 -7 3 4 3 10 0 14 -4 3 -7 0 -7 -7z"/>
<path d="M111 1264 c0 -11 3 -14 6 -6 3 7 2 16 -1 19 -3 4 -6 -2 -5 -13z"/>
<path d="M3360 1250 c0 -7 3 -10 7 -7 3 4 3 10 0 14 -4 3 -7 0 -7 -7z"/>
<path d="M121 1214 c0 -11 3 -14 6 -6 3 7 2 16 -1 19 -3 4 -6 -2 -5 -13z"/>
<path d="M131 1174 c0 -11 3 -14 6 -6 3 7 2 16 -1 19 -3 4 -6 -2 -5 -13z"/>
<path d="M140 1140 c0 -7 3 -10 7 -7 3 4 3 10 0 14 -4 3 -7 0 -7 -7z"/>
<path d="M3320 1130 c0 -7 3 -10 7 -7 3 4 3 10 0 14 -4 3 -7 0 -7 -7z"/>
<path d="M151 1100 c0 -8 4 -22 9 -30 12 -18 12 -2 0 25 -6 13 -9 15 -9 5z"/>
<path d="M171 1034 c0 -11 3 -14 6 -6 3 7 2 16 -1 19 -3 4 -6 -2 -5 -13z"/>
<path d="M190 980 c0 -7 3 -10 7 -7 3 4 3 10 0 14 -4 3 -7 0 -7 -7z"/>
<path d="M200 955 c0 -5 5 -17 10 -25 5 -8 10 -10 10 -5 0 6 -5 17 -10 25 -5 8 -10 11 -10 5z"/>
<path d="M220 905 c0 -5 5 -17 10 -25 5 -8 10 -10 10 -5 0 6 -5 17 -10 25 -5 8 -10 11 -10 5z"/>
<path d="M260 811 c0 -6 4 -13 10 -16 6 -3 7 1 4 9 -7 18 -14 21 -14 7z"/>
<path d="M3104 748 c-4 -7 -3 -8 4 -4 12 7 16 16 8 16 -3 0 -8 -5 -12 -12z"/>
<path d="M323 695 c9 -16 23 -39 32 -50 9 -11 7 -2 -6 20 -27 49 -47 72 -26 30z"/>
<path d="M375 610 c3 -5 8 -10 11 -10 3 0 2 5 -1 10 -3 6 -8 10 -11 10 -3 0 -2 -4 1 -10z"/>
<path d="M400 571 c5 -11 15 -23 21 -27 6 -3 3 5 -6 20 -20 30 -30 35 -15 7z"/>
<path d="M939 563 c-13 -16 -12 -17 3 -4 16 12 24 8 70 -29 l53 -42 -50 46 c-27 25 -53 46 -56 46 -4 0 -13 -8 -20 -17z"/>
<path d="M2893 534 l-28 -25 33 22 c17 13 32 24 32 26 0 8 -11 1 -37 -23z"/>
<path d="M865 498 l-40 -43 43 40 c39 36 47 45 39 45 -2 0 -21 -19 -42 -42z"/>
<path d="M445 510 c3 -5 8 -10 11 -10 3 0 2 5 -1 10 -3 6 -8 10 -11 10 -3 0 -2 -4 1 -10z"/>
<path d="M2834 488 l-19 -23 23 19 c12 11 22 21 22 23 0 8 -8 2 -26 -19z"/>
<path d="M460 486 c0 -2 8 -10 18 -17 15 -13 16 -12 3 4 -13 16 -21 21 -21 13z"/>
<path d="M1070 486 c0 -2 14 -14 30 -26 17 -12 30 -19 30 -16 0 2 -13 14 -30 26 -16 12 -30 19 -30 16z"/>
<path d="M2794 458 c-4 -7 -3 -8 4 -4 7 4 12 9 12 12 0 8 -9 4 -16 -8z"/>
<path d="M2750 429 c-22 -18 -22 -19 -3 -10 12 6 25 16 28 21 9 15 3 12 -25 -11z"/>
<path d="M735 378 l-60 -63 63 60 c34 33 62 61 62 62 0 8 -10 -1 -65 -59z"/>
<path d="M1145 430 c3 -5 8 -10 11 -10 3 0 2 5 -1 10 -3 6 -8 10 -11 10 -3 0 -2 -4 1 -10z"/>
<path d="M525 410 c10 -11 20 -20 23 -20 3 0 -3 9 -13 20 -10 11 -20 20 -23 20 -3 0 3 -9 13 -20z"/>
<path d="M1170 416 c0 -3 9 -10 20 -16 11 -6 20 -8 20 -6 0 3 -9 10 -20 16 -11 6 -20 8 -20 6z"/>
<path d="M2694 394 c-18 -14 -18 -15 4 -4 12 6 22 13 22 15 0 8 -5 6 -26 -11z"/>
<path d="M1220 386 c0 -3 9 -10 20 -16 11 -6 20 -8 20 -6 0 3 -9 10 -20 16 -11 6 -20 8 -20 6z"/>
<path d="M592 335 c40 -41 50 -47 60 -36 11 11 10 13 0 6 -9 -5 -30 8 -60 36 l-47 44 47 -50z"/>
<path d="M2590 340 c-30 -16 -51 -29 -47 -30 10 0 107 49 107 55 0 7 1 7 -60 -25z"/>
<path d="M1270 356 c0 -2 7 -7 16 -10 8 -3 12 -2 9 4 -6 10 -25 14 -25 6z"/>
<path d="M1350 315 c14 -8 30 -14 35 -14 6 0 -1 6 -15 14 -14 8 -29 14 -35 14 -5 0 1 -6 15 -14z"/>
<path d="M2485 295 c-16 -8 -23 -14 -15 -14 8 0 26 6 40 14 32 18 15 18 -25 0z"/>
<path d="M1410 290 c8 -5 20 -10 25 -10 6 0 3 5 -5 10 -8 5 -19 10 -25 10 -5 0 -3 -5 5 -10z"/>
<path d="M1453 273 c4 -3 10 -3 14 0 3 4 0 7 -7 7 -7 0 -10 -3 -7 -7z"/>
<path d="M1483 263 c4 -3 10 -3 14 0 3 4 0 7 -7 7 -7 0 -10 -3 -7 -7z"/>
<path d="M2413 263 c4 -3 10 -3 14 0 3 4 0 7 -7 7 -7 0 -10 -3 -7 -7z"/>
<path d="M1513 253 c4 -3 10 -3 14 0 3 4 0 7 -7 7 -7 0 -10 -3 -7 -7z"/>
<path d="M1548 243 c7 -3 16 -2 19 1 4 3 -2 6 -13 5 -11 0 -14 -3 -6 -6z"/>
<path d="M2348 243 c7 -3 16 -2 19 1 4 3 -2 6 -13 5 -11 0 -14 -3 -6 -6z"/>
<path d="M1583 233 c4 -3 10 -3 14 0 3 4 0 7 -7 7 -7 0 -10 -3 -7 -7z"/>
<path d="M2308 233 c7 -3 16 -2 19 1 4 3 -2 6 -13 5 -11 0 -14 -3 -6 -6z"/>
<path d="M1628 223 c7 -3 16 -2 19 1 4 3 -2 6 -13 5 -11 0 -14 -3 -6 -6z"/>
<path d="M2268 223 c7 -3 16 -2 19 1 4 3 -2 6 -13 5 -11 0 -14 -3 -6 -6z"/>
<path d="M1668 213 c6 -2 18 -2 25 0 6 3 1 5 -13 5 -14 0 -19 -2 -12 -5z"/>
<path d="M2213 213 c9 -2 23 -2 30 0 6 3 -1 5 -18 5 -16 0 -22 -2 -12 -5z"/>
<path d="M1728 203 c6 -2 18 -2 25 0 6 3 1 5 -13 5 -14 0 -19 -2 -12 -5z"/>
<path d="M2158 203 c6 -2 18 -2 25 0 6 3 1 5 -13 5 -14 0 -19 -2 -12 -5z"/>
<path d="M1813 193 c15 -2 39 -2 55 0 15 2 2 4 -28 4 -30 0 -43 -2 -27 -4z"/>
<path d="M2043 193 c15 -2 39 -2 55 0 15 2 2 4 -28 4 -30 0 -43 -2 -27 -4z"/>
</g>
<g id="layer106" fill="#fefefe" stroke="none">
<path d="M2014 3770 c0 -129 2 -182 3 -117 2 64 2 170 0 235 -1 64 -3 11 -3 -118z"/>
<path d="M1853 3523 c4 -3 10 -3 14 0 3 4 0 7 -7 7 -7 0 -10 -3 -7 -7z"/>
<path d="M1740 3393 c-279 -43 -498 -123 -710 -256 -418 -264 -699 -671 -802 -1164 -20 -94 -23 -138 -23 -338 0 -200 3 -244 23 -338 61 -290 199 -584 369 -785 25 -29 49 -52 54 -50 4 2 55 47 114 101 l105 99 -46 56 c-368 454 -438 1073 -178 1593 93 187 305 430 474 546 209 142 446 226 714 254 375 39 808 -107 1096 -369 l65 -59 110 105 109 105 -69 65 c-125 115 -317 237 -492 312 -99 42 -292 96 -408 115 -87 14 -432 20 -505 8z"/>
<path d="M694 3038 c-4 -7 -3 -8 4 -4 7 4 12 9 12 12 0 8 -9 4 -16 -8z"/>
<path d="M554 2898 c-4 -7 -3 -8 4 -4 7 4 12 9 12 12 0 8 -9 4 -16 -8z"/>
<path d="M1755 2899 c-161 -24 -376 -110 -522 -211 -235 -161 -423 -429 -498 -709 -221 -826 426 -1630 1278 -1586 192 10 344 50 508 132 322 162 566 464 653 810 83 329 40 649 -127 946 -20 36 -45 76 -55 89 l-19 24 -134 -129 -133 -128 -63 69 c-35 37 -63 71 -63 75 0 4 59 64 131 133 72 69 129 129 127 134 -1 5 -30 33 -63 61 -169 148 -378 246 -609 286 -96 16 -310 18 -411 4z m-741 -1078 c32 -30 35 -82 7 -110 -16 -16 -17 -21 -4 -44 8 -15 11 -38 7 -52 -11 -43 -40 -55 -131 -55 l-83 0 0 138 c0 76 3 142 8 146 4 4 44 6 89 4 70 -3 85 -6 107 -27z m296 -1 c0 -30 -1 -30 -55 -30 -54 0 -55 0 -55 -30 0 -29 2 -30 45 -30 43 0 45 -1 45 -30 0 -29 -2 -30 -45 -30 -41 0 -45 -2 -45 -25 0 -24 3 -25 55 -25 54 0 55 0 55 -30 l0 -30 -95 0 -95 0 0 145 0 145 95 0 95 0 0 -30z m170 -20 c0 -35 4 -50 13 -50 8 0 26 23 41 50 26 47 30 50 67 50 l39 0 -29 -58 c-30 -59 -30 -59 -10 -79 11 -10 22 -36 26 -56 5 -31 1 -40 -25 -67 -29 -29 -34 -30 -116 -30 l-86 0 0 145 0 145 40 0 40 0 0 -50z m310 6 c0 -47 20 -76 37 -54 6 7 20 32 32 56 20 39 24 42 61 42 22 0 40 -3 40 -7 -1 -5 -23 -44 -49 -88 l-48 -80 44 -57 44 -58 -44 0 c-41 0 -45 3 -80 53 l-37 52 0 -53 0 -53 -37 3 -38 3 -3 120 c-4 156 -1 165 43 165 35 0 35 0 35 -44z m430 14 c0 -28 -1 -29 -57 -32 -55 -3 -58 -4 -61 -30 -3 -27 -2 -28 47 -28 50 0 51 -1 51 -29 0 -28 -2 -30 -47 -33 -41 -3 -48 -6 -51 -25 -3 -22 0 -23 57 -23 l61 0 0 -30 0 -30 -95 0 -95 0 0 145 0 145 95 0 95 0 0 -30z m280 0 c0 -30 -1 -30 -55 -30 l-55 0 0 -115 0 -115 -40 0 -40 0 0 145 0 145 95 0 95 0 0 -30z m278 -2 c3 -28 3 -28 -57 -28 l-61 0 0 -30 c0 -29 2 -30 45 -30 43 0 45 -1 45 -30 0 -29 -2 -30 -45 -30 -41 0 -45 -2 -45 -25 0 -24 3 -25 55 -25 54 0 55 0 55 -30 l0 -30 -95 0 -95 0 0 145 0 146 98 -3 97 -3 3 -27z m212 -38 c4 -44 16 -85 36 -125 49 -98 49 -95 5 -95 -37 0 -39 2 -62 57 l-25 58 -19 -55 c-20 -54 -21 -55 -62 -58 l-42 -3 44 95 c35 74 45 107 45 146 l0 51 38 -3 37 -3 5 -65z"/>
<path d="M890 1760 c0 -27 3 -30 34 -30 22 0 36 6 40 16 9 24 -12 44 -45 44 -26 0 -29 -4 -29 -30z"/>
<path d="M890 1646 c0 -22 4 -26 31 -26 26 0 30 3 27 23 -2 16 -11 23 -30 25 -24 3 -28 0 -28 -22z"/>
<path d="M1487 1683 c-4 -3 -7 -19 -7 -35 0 -27 3 -29 33 -26 26 2 33 8 35 29 2 20 -2 28 -20 33 -29 7 -33 7 -41 -1z"/>
<path d="M3415 2860 c10 -11 20 -20 23 -20 3 0 -3 9 -13 20 -10 11 -20 20 -23 20 -3 0 3 -9 13 -20z"/>
<path d="M3305 2708 l-40 -43 43 40 c39 36 47 45 39 45 -2 0 -21 -19 -42 -42z"/>
<path d="M3155 2490 c3 -5 8 -10 11 -10 3 0 2 5 -1 10 -3 6 -8 10 -11 10 -3 0 -2 -4 1 -10z"/>
<path d="M3412 1800 c0 -14 2 -19 5 -12 2 6 2 18 0 25 -3 6 -5 1 -5 -13z"/>
<path d="M3411 1504 c0 -11 3 -14 6 -6 3 7 2 16 -1 19 -3 4 -6 -2 -5 -13z"/>
<path d="M3059 693 c-13 -16 -12 -17 4 -4 16 13 21 21 13 21 -2 0 -10 -8 -17 -17z"/>
<path d="M689 333 c-13 -16 -12 -17 4 -4 16 13 21 21 13 21 -2 0 -10 -8 -17 -17z"/>
</g>


</svg>